<svg width="20" height="20" viewBox="0 0 20 20" fill="none" xmlns="http://www.w3.org/2000/svg">
<path d="M9.16672 4.90167V16.0333C9.16647 16.3787 9.04434 16.7129 8.82184 16.9771C8.59934 17.2413 8.29075 17.4185 7.95043 17.4774C7.61011 17.5364 7.2599 17.4734 6.96149 17.2994C6.66309 17.1255 6.43564 16.8518 6.31922 16.5267L4.53005 11.4017M4.53005 11.4017C3.82274 11.1009 3.24104 10.5659 2.88341 9.88555C2.52578 9.20523 2.41418 8.42223 2.5675 7.66908C2.72082 6.91593 3.12963 6.23888 3.72476 5.7525C4.31989 5.26612 5.06479 5.00029 5.83339 5H7.36005C10.7767 5 13.7142 3.97167 15.0001 2.5V14.1667C13.7142 12.695 10.7776 11.6667 7.36005 11.6667H5.83339C5.38558 11.6673 4.94226 11.5766 4.53005 11.4017ZM15.0001 10.8333C15.6631 10.8333 16.299 10.5699 16.7678 10.1011C17.2367 9.63226 17.5001 8.99637 17.5001 8.33333C17.5001 7.67029 17.2367 7.03441 16.7678 6.56557C16.299 6.09673 15.6631 5.83333 15.0001 5.83333" stroke="#1447E6" stroke-width="1.66667" stroke-linecap="round" stroke-linejoin="round"/>
</svg>
