<svg width="40" height="40" viewBox="0 0 40 40" fill="none" xmlns="http://www.w3.org/2000/svg">
<path d="M35 11.2167C34.9667 11.2167 34.9167 11.2167 34.8666 11.2167C26.05 10.3333 17.25 10 8.53331 10.8833L5.13331 11.2167C4.43331 11.2833 3.81665 10.7833 3.74998 10.0833C3.68331 9.38333 4.18331 8.78333 4.86665 8.71667L8.26665 8.38333C17.1333 7.48333 26.1166 7.83333 35.1166 8.71667C35.8 8.78333 36.3 9.4 36.2333 10.0833C36.1833 10.7333 35.6333 11.2167 35 11.2167Z" fill="#D82C2C"/>
<path d="M14.1666 9.53337C14.1 9.53337 14.0333 9.53337 13.95 9.51671C13.2833 9.40004 12.8166 8.75004 12.9333 8.08337L13.3 5.90004C13.5666 4.30004 13.9333 2.08337 17.8166 2.08337H22.1833C26.0833 2.08337 26.45 4.38337 26.7 5.91671L27.0666 8.08337C27.1833 8.76671 26.7166 9.41671 26.05 9.51671C25.3666 9.63338 24.7166 9.16671 24.6166 8.50004L24.25 6.33337C24.0166 4.88337 23.9666 4.60004 22.2 4.60004H17.8333C16.0666 4.60004 16.0333 4.83337 15.7833 6.31671L15.4 8.48338C15.3 9.10004 14.7666 9.53337 14.1666 9.53337Z" fill="#D82C2C"/>
<path d="M25.35 37.9167H14.65C8.83333 37.9167 8.59999 34.7 8.41666 32.1L7.33333 15.3167C7.28333 14.6333 7.81666 14.0333 8.49999 13.9833C9.19999 13.95 9.78333 14.4667 9.83333 15.15L10.9167 31.9333C11.1 34.4667 11.1667 35.4167 14.65 35.4167H25.35C28.85 35.4167 28.9167 34.4667 29.0833 31.9333L30.1667 15.15C30.2167 14.4667 30.8167 13.95 31.5 13.9833C32.1833 14.0333 32.7167 14.6167 32.6667 15.3167L31.5833 32.1C31.4 34.7 31.1667 37.9167 25.35 37.9167Z" fill="#D82C2C"/>
<path d="M22.7667 28.75H17.2167C16.5333 28.75 15.9667 28.1833 15.9667 27.5C15.9667 26.8167 16.5333 26.25 17.2167 26.25H22.7667C23.45 26.25 24.0167 26.8167 24.0167 27.5C24.0167 28.1833 23.45 28.75 22.7667 28.75Z" fill="#D82C2C"/>
<path d="M24.1666 22.0834H15.8333C15.15 22.0834 14.5833 21.5167 14.5833 20.8334C14.5833 20.15 15.15 19.5834 15.8333 19.5834H24.1666C24.85 19.5834 25.4166 20.15 25.4166 20.8334C25.4166 21.5167 24.85 22.0834 24.1666 22.0834Z" fill="#D82C2C"/>
</svg>
