<svg width="20" height="20" viewBox="0 0 20 20" fill="none" xmlns="http://www.w3.org/2000/svg">
<path d="M15.8333 16.6667H4.16667C3.72464 16.6667 3.30072 16.4911 2.98816 16.1786C2.67559 15.866 2.5 15.4421 2.5 15V5.00004C2.5 4.55801 2.67559 4.13409 2.98816 3.82153C3.30072 3.50897 3.72464 3.33337 4.16667 3.33337H12.5C12.942 3.33337 13.366 3.50897 13.6785 3.82153C13.9911 4.13409 14.1667 4.55801 14.1667 5.00004V5.83337M15.8333 16.6667C15.3913 16.6667 14.9674 16.4911 14.6548 16.1786C14.3423 15.866 14.1667 15.4421 14.1667 15V5.83337M15.8333 16.6667C16.2754 16.6667 16.6993 16.4911 17.0118 16.1786C17.3244 15.866 17.5 15.4421 17.5 15V7.50004C17.5 7.05801 17.3244 6.63409 17.0118 6.32153C16.6993 6.00897 16.2754 5.83337 15.8333 5.83337H14.1667M10.8333 3.33337H7.5M5.83333 13.3334H10.8333M5.83333 6.66671H10.8333V10H5.83333V6.66671Z" stroke="white" stroke-width="1.66667" stroke-linecap="round" stroke-linejoin="round"/>
</svg>
